# xmcd
#
# Track frame offsets:
#	187
#	14337
#	26430
#	39427
#	55927
#	65037
#	79510
#	92832
#	104172
#	122180
#	133420
#	145337
#	154435
#	162582
#	175267
#	186987
#	199392
#	209970
#	221612
#	231912
#
# Disc length: 3316 seconds
#
# Revision: 1
# Processed by: cddbd v1.5.1PL0 Copyright (c) Steve Scherf et al.
# Submitted via: CDex 1.50Beta5
#
DISCID=400cf214
DTITLE=Song Collection - 行進曲〜世界のマーチ1
DYEAR=1900
DGENRE=Classical
TTITLE0=東京佼成ウインドオーケストラ/国民の象徴
TTITLE1=東京佼成ウインドオーケストラ/キング・コットン
TTITLE2=東京佼成ウインドオーケストラ/忠誠
TTITLE3=東京佼成ウインドオーケストラ/美中の美
TTITLE4=東京佼成ウインドオーケストラ/マンハッタン・ビーチ
TTITLE5=東京佼成ウインドオーケストラ/木陰の散歩道
TTITLE6=東京佼成ウインドオーケストラ/消灯
TTITLE7=東京佼成ウインドオーケストラ/われらが指揮者
TTITLE8=海上自衛隊東京音楽隊/アメリカン・パトロール
TTITLE9=海上自衛隊東京音楽隊/ビルボード
TTITLE10=東京吹奏楽協会/アメリカ空軍
TTITLE11=東京吹奏楽協会/海兵隊讃歌
TTITLE12=東京吹奏楽協会/錨をあげて
TTITLE13=東京吹奏楽協会/海を越えた握手
TTITLE14=東京吹奏楽協会/士官候補生
TTITLE15=東京吹奏楽協会/雷神
TTITLE16=東京吹奏楽協会/エル・カピタン
TTITLE17=東京吹奏楽協会/ワシントン・ポスト
TTITLE18=東京佼成ウインドオーケストラ/アメリカ野砲隊
TTITLE19=東京佼成ウインドオーケストラ/星条旗よ永遠なれ
EXTD=
EXTT0=
EXTT1=
EXTT2=
EXTT3=
EXTT4=
EXTT5=
EXTT6=
EXTT7=
EXTT8=
EXTT9=
EXTT10=
EXTT11=
EXTT12=
EXTT13=
EXTT14=
EXTT15=
EXTT16=
EXTT17=
EXTT18=
EXTT19=
PLAYORDER=
